<mxfile host="app.diagrams.net" agent="Mozilla/5.0 (Macintosh; Intel Mac OS X 10_15_7) AppleWebKit/537.36 (KHTML, like Gecko) Chrome/138.0.0.0 Safari/537.36" version="28.0.9">
  <diagram name="第 1 页" id="RXKUHt1OKdbmUNWrcjzv">
    <mxGraphModel dx="1018" dy="655" grid="1" gridSize="10" guides="1" tooltips="1" connect="1" arrows="1" fold="1" page="1" pageScale="1" pageWidth="827" pageHeight="1169" math="0" shadow="0">
      <root>
        <mxCell id="0" />
        <mxCell id="1" parent="0" />
        <mxCell id="xPCvh3ImaB9NITjSKOu3-3" value="" style="edgeStyle=orthogonalEdgeStyle;rounded=0;orthogonalLoop=1;jettySize=auto;html=1;" edge="1" parent="1" source="xPCvh3ImaB9NITjSKOu3-1" target="xPCvh3ImaB9NITjSKOu3-2">
          <mxGeometry relative="1" as="geometry" />
        </mxCell>
        <mxCell id="xPCvh3ImaB9NITjSKOu3-1" value="枚举值离线刷新" style="ellipse;whiteSpace=wrap;html=1;" vertex="1" parent="1">
          <mxGeometry x="100" y="50" width="100" height="50" as="geometry" />
        </mxCell>
        <mxCell id="xPCvh3ImaB9NITjSKOu3-5" value="" style="edgeStyle=orthogonalEdgeStyle;rounded=0;orthogonalLoop=1;jettySize=auto;html=1;" edge="1" parent="1" source="xPCvh3ImaB9NITjSKOu3-2" target="xPCvh3ImaB9NITjSKOu3-4">
          <mxGeometry relative="1" as="geometry" />
        </mxCell>
        <mxCell id="xPCvh3ImaB9NITjSKOu3-2" value="校验标签是文本型&lt;div&gt;或者多值型&lt;/div&gt;" style="rhombus;whiteSpace=wrap;html=1;" vertex="1" parent="1">
          <mxGeometry x="75" y="170" width="150" height="75" as="geometry" />
        </mxCell>
        <mxCell id="xPCvh3ImaB9NITjSKOu3-11" value="" style="edgeStyle=orthogonalEdgeStyle;rounded=0;orthogonalLoop=1;jettySize=auto;html=1;" edge="1" parent="1" source="xPCvh3ImaB9NITjSKOu3-4" target="xPCvh3ImaB9NITjSKOu3-10">
          <mxGeometry relative="1" as="geometry" />
        </mxCell>
        <mxCell id="xPCvh3ImaB9NITjSKOu3-4" value="获取标签表pt信息" style="shape=process;whiteSpace=wrap;html=1;backgroundOutline=1;" vertex="1" parent="1">
          <mxGeometry x="90" y="280" width="120" height="47.5" as="geometry" />
        </mxCell>
        <mxCell id="xPCvh3ImaB9NITjSKOu3-15" value="" style="edgeStyle=orthogonalEdgeStyle;rounded=0;orthogonalLoop=1;jettySize=auto;html=1;" edge="1" parent="1" source="xPCvh3ImaB9NITjSKOu3-10" target="xPCvh3ImaB9NITjSKOu3-14">
          <mxGeometry relative="1" as="geometry" />
        </mxCell>
        <mxCell id="xPCvh3ImaB9NITjSKOu3-10" value="判断是否&lt;div&gt;是导入标签&lt;/div&gt;" style="rhombus;whiteSpace=wrap;html=1;" vertex="1" parent="1">
          <mxGeometry x="100" y="391.25" width="100" height="68.75" as="geometry" />
        </mxCell>
        <mxCell id="xPCvh3ImaB9NITjSKOu3-16" style="edgeStyle=orthogonalEdgeStyle;rounded=0;orthogonalLoop=1;jettySize=auto;html=1;" edge="1" parent="1" source="xPCvh3ImaB9NITjSKOu3-12" target="xPCvh3ImaB9NITjSKOu3-14">
          <mxGeometry relative="1" as="geometry">
            <Array as="points">
              <mxPoint x="45" y="620" />
            </Array>
          </mxGeometry>
        </mxCell>
        <mxCell id="xPCvh3ImaB9NITjSKOu3-12" value="查库获取表信息" style="shape=cylinder3;whiteSpace=wrap;html=1;boundedLbl=1;backgroundOutline=1;size=15;" vertex="1" parent="1">
          <mxGeometry x="15" y="490" width="60" height="80" as="geometry" />
        </mxCell>
        <mxCell id="xPCvh3ImaB9NITjSKOu3-13" style="edgeStyle=orthogonalEdgeStyle;rounded=0;orthogonalLoop=1;jettySize=auto;html=1;entryX=0.5;entryY=0;entryDx=0;entryDy=0;entryPerimeter=0;" edge="1" parent="1" source="xPCvh3ImaB9NITjSKOu3-10" target="xPCvh3ImaB9NITjSKOu3-12">
          <mxGeometry relative="1" as="geometry" />
        </mxCell>
        <mxCell id="xPCvh3ImaB9NITjSKOu3-20" value="" style="edgeStyle=orthogonalEdgeStyle;rounded=0;orthogonalLoop=1;jettySize=auto;html=1;" edge="1" parent="1" source="xPCvh3ImaB9NITjSKOu3-14" target="xPCvh3ImaB9NITjSKOu3-19">
          <mxGeometry relative="1" as="geometry" />
        </mxCell>
        <mxCell id="xPCvh3ImaB9NITjSKOu3-14" value="组装sql&lt;br&gt;odps执行" style="ellipse;shape=cloud;whiteSpace=wrap;html=1;" vertex="1" parent="1">
          <mxGeometry x="90" y="590.005" width="120" height="80" as="geometry" />
        </mxCell>
        <mxCell id="xPCvh3ImaB9NITjSKOu3-19" value="&lt;font style=&quot;color: rgb(255, 102, 102);&quot;&gt;一次性&lt;/font&gt;获取结果写入数据库" style="shape=cylinder3;whiteSpace=wrap;html=1;boundedLbl=1;backgroundOutline=1;size=15;" vertex="1" parent="1">
          <mxGeometry x="120" y="720" width="60" height="80" as="geometry" />
        </mxCell>
      </root>
    </mxGraphModel>
  </diagram>
</mxfile>
